# Suzanne mesh converted from Wikimedia Commons File:Suzanne.stl
# Source: https://commons.wikimedia.org/wiki/File:Suzanne.stl
# License: GPL-3.0-or-later; see share/contourtty/LICENSES.md
v 0.468750 -0.757812 0.242188
v 0.437500 -0.765625 0.164062
v 0.500000 -0.687500 0.093750
v 0.562500 -0.671875 0.242188
v -0.500000 -0.687500 0.093750
v -0.437500 -0.765625 0.164062
v -0.468750 -0.757812 0.242188
v -0.562500 -0.671875 0.242188
v 0.546875 -0.578125 0.054688
v 0.625000 -0.562500 0.242188
v -0.546875 -0.578125 0.054688
v -0.625000 -0.562500 0.242188
v 0.351562 -0.718750 0.031250
v 0.351562 -0.617188 -0.023438
v -0.351562 -0.617188 -0.023438
v -0.351562 -0.718750 0.031250
v 0.351562 -0.781250 0.132812
v -0.351562 -0.781250 0.132812
v 0.273438 -0.796875 0.164062
v 0.203125 -0.742188 0.093750
v -0.203125 -0.742188 0.093750
v -0.273438 -0.796875 0.164062
v 0.156250 -0.648438 0.054688
v -0.156250 -0.648438 0.054688
v 0.140625 -0.742188 0.242188
v 0.078125 -0.656250 0.242188
v -0.078125 -0.656250 0.242188
v -0.140625 -0.742188 0.242188
v 0.242188 -0.796875 0.242188
v -0.242188 -0.796875 0.242188
v 0.273438 -0.796875 0.328125
v 0.203125 -0.742188 0.390625
v -0.203125 -0.742188 0.390625
v -0.273438 -0.796875 0.328125
v 0.156250 -0.648438 0.437500
v -0.156250 -0.648438 0.437500
v 0.351562 -0.718750 0.453125
v 0.351562 -0.617188 0.515625
v -0.351562 -0.617188 0.515625
v -0.351562 -0.718750 0.453125
v 0.351562 -0.781250 0.359375
v -0.351562 -0.781250 0.359375
v 0.437500 -0.765625 0.328125
v 0.500000 -0.687500 0.390625
v -0.500000 -0.687500 0.390625
v -0.437500 -0.765625 0.328125
v 0.546875 -0.578125 0.437500
v -0.546875 -0.578125 0.437500
v 0.445312 -0.781250 0.335938
v 0.476562 -0.773438 0.242188
v -0.445312 -0.781250 0.335938
v -0.476562 -0.773438 0.242188
v 0.351562 -0.804688 0.375000
v -0.351562 -0.804688 0.375000
v 0.265625 -0.820312 0.335938
v -0.265625 -0.820312 0.335938
v 0.226562 -0.820312 0.242188
v -0.226562 -0.820312 0.242188
v 0.265625 -0.820312 0.156250
v -0.265625 -0.820312 0.156250
v 0.351562 -0.804688 0.117188
v -0.351562 -0.804688 0.117188
v 0.445312 -0.781250 0.156250
v -0.445312 -0.781250 0.156250
v 0.351562 -0.828125 0.242188
v -0.351562 -0.828125 0.242188
v 0.179688 -0.554688 -0.968750
v 0.164062 -0.632812 -0.929688
v 0.000000 -0.640625 -0.945312
v 0.000000 -0.578125 -0.984375
v -0.164062 -0.632812 -0.929688
v -0.179688 -0.554688 -0.968750
v 0.328125 -0.523438 -0.945312
v 0.234375 -0.632812 -0.914062
v -0.234375 -0.632812 -0.914062
v -0.328125 -0.523438 -0.945312
v 0.367188 -0.531250 -0.890625
v 0.265625 -0.664062 -0.820312
v -0.265625 -0.664062 -0.820312
v -0.367188 -0.531250 -0.890625
v 0.351562 -0.570312 -0.695312
v 0.250000 -0.687500 -0.703125
v -0.250000 -0.687500 -0.703125
v -0.351562 -0.570312 -0.695312
v 0.312500 -0.570312 -0.437500
v 0.210938 -0.710938 -0.445312
v -0.210938 -0.710938 -0.445312
v -0.312500 -0.570312 -0.437500
v 0.203125 -0.562500 -0.187500
v 0.437500 -0.531250 -0.140625
v 0.398438 -0.671875 -0.046875
v 0.125000 -0.812500 -0.101562
v -0.398438 -0.671875 -0.046875
v -0.437500 -0.531250 -0.140625
v -0.203125 -0.562500 -0.187500
v -0.125000 -0.812500 -0.101562
v 0.632812 -0.539062 -0.039062
v 0.617188 -0.625000 0.054688
v -0.617188 -0.625000 0.054688
v -0.632812 -0.539062 -0.039062
v 0.828125 -0.445312 0.148438
v 0.726562 -0.601562 0.203125
v -0.726562 -0.601562 0.203125
v -0.828125 -0.445312 0.148438
v 0.859375 -0.593750 0.429688
v 0.742188 -0.656250 0.375000
v -0.742188 -0.656250 0.375000
v -0.859375 -0.593750 0.429688
v 0.710938 -0.625000 0.484375
v 0.687500 -0.726562 0.414062
v -0.687500 -0.726562 0.414062
v -0.710938 -0.625000 0.484375
v 0.492188 -0.687500 0.601562
v 0.437500 -0.796875 0.546875
v -0.437500 -0.796875 0.546875
v -0.492188 -0.687500 0.601562
v 0.320312 -0.734375 0.757812
v 0.312500 -0.835938 0.640625
v -0.312500 -0.835938 0.640625
v -0.320312 -0.734375 0.757812
v 0.156250 -0.757812 0.718750
v 0.203125 -0.851562 0.617188
v -0.203125 -0.851562 0.617188
v -0.156250 -0.757812 0.718750
v 0.062500 -0.750000 0.492188
v 0.101562 -0.843750 0.429688
v -0.101562 -0.843750 0.429688
v -0.062500 -0.750000 0.492188
v 0.000000 -0.742188 0.429688
v 0.000000 -0.820312 0.351562
v 0.164062 -0.773438 0.414062
v 0.250000 -0.757812 0.468750
v -0.250000 -0.757812 0.468750
v -0.164062 -0.773438 0.414062
v 0.328125 -0.742188 0.476562
v -0.328125 -0.742188 0.476562
v 0.429688 -0.718750 0.437500
v -0.429688 -0.718750 0.437500
v 0.601562 -0.664062 0.375000
v -0.601562 -0.664062 0.375000
v 0.640625 -0.648438 0.296875
v -0.640625 -0.648438 0.296875
v 0.625000 -0.648438 0.187500
v -0.625000 -0.648438 0.187500
v 0.492188 -0.671875 0.062500
v -0.492188 -0.671875 0.062500
v 0.375000 -0.703125 0.015625
v -0.375000 -0.703125 0.015625
v 0.164062 -0.750000 0.140625
v 0.000000 -0.726562 0.046875
v -0.164062 -0.750000 0.140625
v 0.125000 -0.765625 0.304688
v -0.125000 -0.765625 0.304688
v 0.000000 -0.765625 0.210938
v 0.132812 -0.757812 0.210938
v -0.132812 -0.757812 0.210938
v 0.062500 -0.695312 -0.882812
v 0.000000 -0.687500 -0.890625
v -0.062500 -0.695312 -0.882812
v 0.117188 -0.710938 -0.835938
v -0.117188 -0.710938 -0.835938
v 0.109375 -0.734375 -0.718750
v -0.109375 -0.734375 -0.718750
v 0.078125 -0.750000 -0.445312
v 0.117188 -0.734375 -0.687500
v -0.117188 -0.734375 -0.687500
v -0.078125 -0.750000 -0.445312
v 0.085938 -0.742188 -0.289062
v 0.000000 -0.742188 -0.328125
v 0.000000 -0.750000 -0.445312
v -0.085938 -0.742188 -0.289062
v 0.000000 -0.734375 -0.679688
v 0.000000 -0.734375 -0.765625
v 0.125000 -0.750000 -0.226562
v 0.132812 -0.796875 -0.226562
v 0.093750 -0.781250 -0.273438
v -0.093750 -0.781250 -0.273438
v -0.132812 -0.796875 -0.226562
v -0.125000 -0.750000 -0.226562
v 0.101562 -0.742188 -0.148438
v 0.109375 -0.781250 -0.132812
v -0.109375 -0.781250 -0.132812
v -0.101562 -0.742188 -0.148438
v 0.000000 -0.742188 -0.140625
v 0.039062 -0.781250 -0.125000
v -0.039062 -0.781250 -0.125000
v 0.000000 -0.750000 -0.195312
v 0.000000 -0.796875 -0.187500
v 0.000000 -0.781250 -0.320312
v 0.078125 -0.804688 -0.250000
v 0.000000 -0.804688 -0.289062
v -0.078125 -0.804688 -0.250000
v 0.000000 -0.828125 -0.203125
v 0.046875 -0.812500 -0.148438
v -0.046875 -0.812500 -0.148438
v 0.093750 -0.812500 -0.156250
v -0.093750 -0.812500 -0.156250
v 0.109375 -0.828125 -0.226562
v -0.109375 -0.828125 -0.226562
v 0.164062 -0.710938 -0.242188
v -0.164062 -0.710938 -0.242188
v 0.179688 -0.710938 -0.312500
v -0.179688 -0.710938 -0.312500
v 0.257812 -0.554688 -0.312500
v -0.257812 -0.554688 -0.312500
v 0.234375 -0.554688 -0.250000
v -0.234375 -0.554688 -0.250000
v 0.000000 -0.718750 -0.773438
v 0.093750 -0.726562 -0.742188
v -0.093750 -0.726562 -0.742188
v 0.093750 -0.710938 -0.820312
v -0.093750 -0.710938 -0.820312
v 0.046875 -0.687500 -0.867188
v -0.046875 -0.687500 -0.867188
v 0.000000 -0.687500 -0.875000
v 0.046875 -0.632812 -0.851562
v 0.000000 -0.632812 -0.859375
v -0.046875 -0.632812 -0.851562
v 0.093750 -0.640625 -0.812500
v -0.093750 -0.640625 -0.812500
v 0.093750 -0.664062 -0.750000
v -0.093750 -0.664062 -0.750000
v 0.000000 -0.656250 -0.781250
v 0.187500 -0.773438 0.156250
v 0.171875 -0.781250 0.218750
v -0.187500 -0.773438 0.156250
v -0.171875 -0.781250 0.218750
v 0.179688 -0.781250 0.296875
v -0.179688 -0.781250 0.296875
v 0.210938 -0.781250 0.375000
v -0.210938 -0.781250 0.375000
v 0.226562 -0.781250 0.109375
v -0.226562 -0.781250 0.109375
v 0.375000 -0.742188 0.062500
v -0.375000 -0.742188 0.062500
v 0.476562 -0.718750 0.101562
v -0.476562 -0.718750 0.101562
v 0.578125 -0.679688 0.195312
v -0.578125 -0.679688 0.195312
v 0.585938 -0.687500 0.289062
v -0.585938 -0.687500 0.289062
v 0.562500 -0.695312 0.351562
v -0.562500 -0.695312 0.351562
v 0.421875 -0.773438 0.398438
v -0.421875 -0.773438 0.398438
v 0.335938 -0.757812 0.429688
v -0.335938 -0.757812 0.429688
v 0.273438 -0.773438 0.421875
v -0.273438 -0.773438 0.421875
v 0.234375 -0.757812 0.359375
v 0.281250 -0.765625 0.398438
v -0.234375 -0.757812 0.359375
v -0.281250 -0.765625 0.398438
v 0.335938 -0.750000 0.406250
v -0.335938 -0.750000 0.406250
v 0.414062 -0.750000 0.390625
v -0.414062 -0.750000 0.390625
v 0.531250 -0.679688 0.335938
v -0.531250 -0.679688 0.335938
v 0.554688 -0.671875 0.281250
v -0.554688 -0.671875 0.281250
v 0.546875 -0.671875 0.210938
v -0.546875 -0.671875 0.210938
v 0.460938 -0.703125 0.117188
v -0.460938 -0.703125 0.117188
v 0.375000 -0.726562 0.085938
v -0.375000 -0.726562 0.085938
v 0.242188 -0.757812 0.125000
v -0.242188 -0.757812 0.125000
v 0.203125 -0.750000 0.171875
v -0.203125 -0.750000 0.171875
v 0.195312 -0.757812 0.296875
v -0.195312 -0.757812 0.296875
v 0.195312 -0.750000 0.226562
v -0.195312 -0.750000 0.226562
v 0.109375 -0.609375 0.460938
v 0.000000 -0.601562 0.406250
v -0.109375 -0.609375 0.460938
v 0.195312 -0.617188 0.664062
v -0.195312 -0.617188 0.664062
v 0.335938 -0.593750 0.687500
v -0.335938 -0.593750 0.687500
v 0.484375 -0.554688 0.554688
v -0.484375 -0.554688 0.554688
v 0.679688 -0.492188 0.453125
v -0.679688 -0.492188 0.453125
v 0.796875 -0.460938 0.406250
v -0.796875 -0.460938 0.406250
v 0.773438 -0.375000 0.164062
v -0.773438 -0.375000 0.164062
v 0.601562 -0.414062 0.000000
v -0.601562 -0.414062 0.000000
v 0.437500 -0.468750 -0.093750
v -0.437500 -0.468750 -0.093750
v 0.000000 -0.320312 -0.570312
v 0.000000 -0.281250 -0.484375
v 0.179688 -0.257812 -0.414062
v 0.125000 -0.359375 -0.539062
v -0.179688 -0.257812 -0.414062
v -0.125000 -0.359375 -0.539062
v 0.000000 -0.343750 -0.804688
v 0.140625 -0.367188 -0.757812
v -0.140625 -0.367188 -0.757812
v 0.000000 -0.460938 -0.976562
v 0.164062 -0.437500 -0.945312
v -0.164062 -0.437500 -0.945312
v 0.328125 -0.398438 -0.914062
v -0.328125 -0.398438 -0.914062
v 0.289062 -0.382812 -0.710938
v -0.289062 -0.382812 -0.710938
v 0.250000 -0.390625 -0.500000
v -0.250000 -0.390625 -0.500000
v 0.234375 -0.406250 -0.351562
v -0.234375 -0.406250 -0.351562
v 0.218750 -0.429688 -0.281250
v 0.210938 -0.468750 -0.226562
v -0.210938 -0.468750 -0.226562
v -0.218750 -0.429688 -0.281250
v 0.203125 -0.500000 -0.171875
v -0.203125 -0.500000 -0.171875
v 0.000000 0.828125 0.070312
v 0.335938 0.664062 0.054688
v 0.343750 0.539062 -0.148438
v 0.000000 0.671875 -0.195312
v -0.343750 0.539062 -0.148438
v -0.335938 0.664062 0.054688
v 0.296875 0.265625 -0.312500
v 0.000000 0.351562 -0.382812
v -0.296875 0.265625 -0.312500
v 0.210938 -0.164062 -0.390625
v 0.000000 -0.187500 -0.460938
v -0.210938 -0.164062 -0.390625
v 0.734375 -0.070312 -0.046875
v 0.851562 -0.054688 0.234375
v -0.734375 -0.070312 -0.046875
v -0.851562 -0.054688 0.234375
v 0.000000 0.851562 0.562500
v 0.460938 0.703125 0.437500
v -0.460938 0.703125 0.437500
v 0.000000 -0.289062 0.898438
v 0.453125 -0.234375 0.851562
v 0.453125 0.070312 0.929688
v 0.000000 0.078125 0.984375
v -0.453125 0.070312 0.929688
v -0.453125 -0.234375 0.851562
v 0.453125 0.382812 0.867188
v 0.000000 0.546875 0.898438
v -0.453125 0.382812 0.867188
v 0.726562 -0.335938 0.406250
v 0.632812 -0.281250 0.453125
v -0.726562 -0.335938 0.406250
v -0.632812 -0.281250 0.453125
v 0.796875 -0.125000 0.562500
v 0.640625 -0.054688 0.703125
v -0.796875 -0.125000 0.562500
v -0.640625 -0.054688 0.703125
v 0.796875 0.117188 0.617188
v 0.640625 0.195312 0.750000
v -0.796875 0.117188 0.617188
v -0.640625 0.195312 0.750000
v 0.796875 0.359375 0.539062
v 0.640625 0.445312 0.679688
v -0.796875 0.359375 0.539062
v -0.640625 0.445312 0.679688
v 0.773438 0.437500 0.265625
v 0.617188 0.585938 0.328125
v -0.617188 0.585938 0.328125
v -0.773438 0.437500 0.265625
v 0.460938 -0.429688 0.523438
v -0.460938 -0.429688 0.523438
v 0.000000 -0.570312 0.570312
v 0.859375 0.046875 0.320312
v -0.859375 0.046875 0.320312
v 0.820312 0.203125 0.328125
v -0.820312 0.203125 0.328125
v 0.429688 0.210938 -0.195312
v 0.406250 -0.148438 -0.171875
v -0.429688 0.210938 -0.195312
v -0.406250 -0.148438 -0.171875
v 0.593750 0.164062 -0.125000
v -0.593750 0.164062 -0.125000
v 0.640625 0.429688 -0.007812
v 0.484375 0.546875 0.023438
v -0.484375 0.546875 0.023438
v -0.640625 0.429688 -0.007812
v 1.023438 0.312500 0.476562
v 0.890625 0.234375 0.406250
v 0.921875 0.218750 0.359375
v 1.015625 0.289062 0.414062
v -0.921875 0.218750 0.359375
v -0.890625 0.234375 0.406250
v -1.023438 0.312500 0.476562
v -1.015625 0.289062 0.414062
v 1.187500 0.390625 0.437500
v 1.234375 0.421875 0.507812
v -1.187500 0.390625 0.437500
v -1.234375 0.421875 0.507812
v 1.265625 0.406250 0.289062
v 1.351562 0.421875 0.320312
v -1.265625 0.406250 0.289062
v -1.351562 0.421875 0.320312
v 1.210938 0.406250 0.078125
v 1.281250 0.429688 0.054688
v -1.210938 0.406250 0.078125
v -1.281250 0.429688 0.054688
v 1.031250 0.304688 -0.039062
v 1.039062 0.328125 -0.101562
v -1.031250 0.304688 -0.039062
v -1.039062 0.328125 -0.101562
v 0.828125 0.132812 -0.070312
v 0.773438 0.125000 -0.140625
v -0.828125 0.132812 -0.070312
v -0.773438 0.125000 -0.140625
v 1.039062 0.367188 0.000000
v 0.882812 0.210938 -0.023438
v -0.882812 0.210938 -0.023438
v -1.039062 0.367188 0.000000
v 1.187500 0.445312 0.093750
v -1.187500 0.445312 0.093750
v 1.234375 0.445312 0.250000
v -1.234375 0.445312 0.250000
v 1.171875 0.437500 0.359375
v -1.171875 0.437500 0.359375
v 1.023438 0.359375 0.343750
v -1.023438 0.359375 0.343750
v 0.945312 0.289062 0.304688
v -0.945312 0.289062 0.304688
v 0.718750 0.171875 -0.023438
v 0.726562 0.070312 0.000000
v -0.718750 0.171875 -0.023438
v -0.726562 0.070312 0.000000
v 0.843750 0.210938 0.289062
v -0.843750 0.210938 0.289062
v 0.812500 0.273438 -0.015625
v -0.812500 0.273438 -0.015625
v 0.843750 0.273438 0.015625
v 0.718750 0.187500 0.039062
v -0.718750 0.187500 0.039062
v -0.843750 0.273438 0.015625
v 0.757812 0.273438 0.093750
v 0.820312 0.273438 0.085938
v -0.757812 0.273438 0.093750
v -0.820312 0.273438 0.085938
v 0.835938 0.273438 0.171875
v 0.796875 0.210938 0.203125
v -0.796875 0.210938 0.203125
v -0.835938 0.273438 0.171875
v 0.890625 0.265625 0.242188
v -0.890625 0.265625 0.242188
v 0.890625 0.320312 0.234375
v 0.953125 0.343750 0.289062
v -0.890625 0.320312 0.234375
v -0.953125 0.343750 0.289062
v 0.843750 0.320312 0.171875
v -0.843750 0.320312 0.171875
v 0.765625 0.320312 0.093750
v -0.765625 0.320312 0.093750
v 0.828125 0.320312 0.078125
v -0.828125 0.320312 0.078125
v 0.851562 0.320312 0.015625
v -0.851562 0.320312 0.015625
v 0.812500 0.320312 -0.015625
v -0.812500 0.320312 -0.015625
v 0.882812 0.265625 -0.015625
v -0.882812 0.265625 -0.015625
v 1.039062 0.414062 0.328125
v -1.039062 0.414062 0.328125
v 1.187500 0.484375 0.343750
v -1.187500 0.484375 0.343750
v 1.257812 0.492188 0.242188
v -1.257812 0.492188 0.242188
v 1.210938 0.484375 0.085938
v -1.210938 0.484375 0.085938
v 1.046875 0.421875 0.000000
v -1.046875 0.421875 0.000000
v 0.937500 0.335938 0.062500
v 0.890625 0.328125 0.109375
v -0.937500 0.335938 0.062500
v -0.890625 0.328125 0.109375
v 1.000000 0.367188 0.125000
v 0.960938 0.351562 0.171875
v -1.000000 0.367188 0.125000
v -0.960938 0.351562 0.171875
v 1.054688 0.382812 0.187500
v 1.015625 0.375000 0.234375
v -1.054688 0.382812 0.187500
v -1.015625 0.375000 0.234375
v 1.109375 0.390625 0.210938
v 1.085938 0.390625 0.273438
v -1.109375 0.390625 0.210938
v -1.085938 0.390625 0.273438
v 0.789062 0.328125 -0.125000
v 1.039062 0.492188 -0.085938
v -0.789062 0.328125 -0.125000
v -1.039062 0.492188 -0.085938
v 1.312500 0.531250 0.054688
v -1.312500 0.531250 0.054688
v 1.367188 0.500000 0.296875
v -1.367188 0.500000 0.296875
v 1.250000 0.546875 0.468750
v -1.250000 0.546875 0.468750
v 1.023438 0.484375 0.437500
v -1.023438 0.484375 0.437500
v 0.859375 0.382812 0.382812
v -0.859375 0.382812 0.382812
vn 0.671345 -0.714459 -0.197092
vn 0.661707 -0.721862 -0.202628
vn -0.671345 -0.714459 -0.197092
vn -0.661707 -0.721862 -0.202628
vn 0.832580 -0.464556 -0.301659
vn 0.826834 -0.472477 -0.305141
vn -0.832580 -0.464556 -0.301659
vn -0.826834 -0.472477 -0.305141
vn 0.425758 -0.428983 -0.796683
vn 0.407625 -0.457034 -0.790545
vn -0.425758 -0.428983 -0.796683
vn -0.407625 -0.457034 -0.790545
vn 0.326498 -0.804986 -0.495376
vn 0.379067 -0.767937 -0.516315
vn -0.326498 -0.804986 -0.495376
vn -0.379067 -0.767937 -0.516315
vn -0.064930 -0.818113 -0.571380
vn -0.085882 -0.848512 -0.522161
vn 0.064930 -0.818113 -0.571380
vn 0.085882 -0.848512 -0.522161
vn -0.273789 -0.483356 -0.831508
vn -0.266350 -0.456974 -0.848665
vn 0.273789 -0.483356 -0.831508
vn 0.266350 -0.456974 -0.848665
vn -0.765568 -0.556777 -0.322344
vn -0.774251 -0.530758 -0.344719
vn 0.765568 -0.556777 -0.322344
vn 0.774251 -0.530758 -0.344719
vn -0.465798 -0.865053 -0.186319
vn -0.470597 -0.859812 -0.198146
vn 0.465798 -0.865053 -0.186319
vn 0.470597 -0.859812 -0.198146
vn -0.498343 -0.847830 0.181216
vn -0.464927 -0.863436 0.195759
vn 0.498343 -0.847830 0.181216
vn 0.464927 -0.863436 0.195759
vn -0.771027 -0.547835 0.324643
vn -0.764039 -0.555665 0.327842
vn 0.771027 -0.547835 0.324643
vn 0.764039 -0.555665 0.327842
vn -0.265910 -0.505229 0.820997
vn -0.241291 -0.527825 0.814358
vn 0.265910 -0.505229 0.820997
vn 0.241291 -0.527825 0.814358
vn -0.055385 -0.830773 0.553849
vn -0.115470 -0.808290 0.577350
vn 0.055385 -0.830773 0.553849
vn 0.115470 -0.808290 0.577350
vn 0.344839 -0.738941 0.578837
vn 0.378344 -0.770200 0.513467
vn -0.344839 -0.738941 0.578837
vn -0.378344 -0.770200 0.513467
vn 0.423136 -0.504030 0.752934
vn 0.406930 -0.478742 0.777955
vn -0.423136 -0.504030 0.752934
vn -0.406930 -0.478742 0.777955
vn 0.828520 -0.473440 0.299015
vn 0.827165 -0.479847 0.292478
vn -0.828520 -0.473440 0.299015
vn -0.827165 -0.479847 0.292478
vn 0.665187 -0.725658 0.175917
vn 0.674819 -0.707577 0.209652
vn -0.665187 -0.725658 0.175917
vn -0.674819 -0.707577 0.209652
vn 0.768350 0.548821 0.329293
vn 0.847998 0.423999 0.317999
vn -0.768350 0.548821 0.329293
vn -0.847998 0.423999 0.317999
vn 0.197727 0.543749 0.815623
vn 0.214297 0.520435 0.826574
vn -0.197727 0.543749 0.815623
vn -0.214297 0.520435 0.826574
vn -0.408248 0.408248 0.816497
vn -0.432041 0.500258 0.750388
vn 0.408248 0.408248 0.816497
vn 0.432041 0.500258 0.750388
vn -0.796395 0.530930 0.289598
vn -0.846181 0.399585 0.352575
vn 0.796395 0.530930 0.289598
vn 0.846181 0.399585 0.352575
vn -0.851943 0.397573 -0.340777
vn -0.778250 0.518833 -0.353750
vn 0.851943 0.397573 -0.340777
vn 0.778250 0.518833 -0.353750
vn -0.405616 0.507020 -0.760530
vn -0.438063 0.412294 -0.798820
vn 0.405616 0.507020 -0.760530
vn 0.438063 0.412294 -0.798820
vn 0.207390 0.518476 -0.829561
vn 0.203653 0.543075 -0.814613
vn -0.207390 0.518476 -0.829561
vn -0.203653 0.543075 -0.814613
vn 0.829740 0.414870 -0.373383
vn 0.768350 0.548821 -0.329293
vn -0.829740 0.414870 -0.373383
vn -0.768350 0.548821 -0.329293
vn 0.400039 -0.914375 -0.062344
vn -0.400039 -0.914375 -0.062344
vn 0.306938 -0.935429 -0.175393
vn -0.306938 -0.935429 -0.175393
vn 0.094512 -0.978473 -0.183464
vn -0.094512 -0.978473 -0.183464
vn -0.062353 -0.997652 -0.028342
vn 0.062353 -0.997652 -0.028342
vn -0.062357 -0.997716 0.025982
vn 0.062357 -0.997716 0.025982
vn 0.099561 -0.979891 0.172922
vn -0.099561 -0.979891 0.172922
vn 0.303571 -0.938310 0.165584
vn -0.303571 -0.938310 0.165584
vn 0.400163 -0.914659 0.057166
vn -0.400163 -0.914659 0.057166
vn 0.105862 -0.461558 -0.880771
vn 0.141433 -0.524671 -0.839474
vn -0.105862 -0.461558 -0.880771
vn -0.141433 -0.524671 -0.839474
vn 0.196715 -0.421533 -0.885219
vn 0.233571 -0.471813 -0.850198
vn -0.196715 -0.421533 -0.885219
vn -0.233571 -0.471813 -0.850198
vn 0.595880 -0.681005 -0.425628
vn 0.578793 -0.640367 -0.504905
vn -0.595880 -0.681005 -0.425628
vn -0.578793 -0.640367 -0.504905
vn 0.756336 -0.653501 -0.029855
vn 0.776303 -0.627171 -0.063330
vn -0.756336 -0.653501 -0.029855
vn -0.776303 -0.627171 -0.063330
vn 0.806929 -0.586612 0.068934
vn 0.747085 -0.655020 0.113195
vn -0.806929 -0.586612 0.068934
vn -0.747085 -0.655020 0.113195
vn 0.233373 -0.583432 -0.777910
vn 0.374655 -0.403953 -0.834539
vn -0.233373 -0.583432 -0.777910
vn -0.374655 -0.403953 -0.834539
vn 0.292803 -0.728656 -0.619134
vn 0.442082 -0.579329 -0.684793
vn -0.292803 -0.728656 -0.619134
vn -0.442082 -0.579329 -0.684793
vn 0.687191 -0.593373 -0.419138
vn 0.694731 -0.584142 -0.419675
vn -0.687191 -0.593373 -0.419138
vn -0.694731 -0.584142 -0.419675
vn 0.572975 -0.696825 -0.431433
vn 0.766752 -0.588301 -0.256891
vn -0.572975 -0.696825 -0.431433
vn -0.766752 -0.588301 -0.256891
vn 0.386059 -0.583649 0.714362
vn 0.573765 -0.690746 -0.440072
vn -0.386059 -0.583649 0.714362
vn -0.573765 -0.690746 -0.440072
vn 0.507932 -0.574766 0.641599
vn 0.505128 -0.567015 0.650645
vn -0.507932 -0.574766 0.641599
vn -0.505128 -0.567015 0.650645
vn 0.615457 -0.615457 0.492366
vn 0.597716 -0.577105 0.556494
vn -0.615457 -0.615457 0.492366
vn -0.597716 -0.577105 0.556494
vn -0.051675 -0.745596 0.664392
vn -0.032791 -0.754200 0.655826
vn 0.051675 -0.745596 0.664392
vn 0.032791 -0.754200 0.655826
vn -0.787931 -0.533403 0.307647
vn -0.655169 -0.681289 0.326496
vn 0.787931 -0.533403 0.307647
vn 0.655169 -0.681289 0.326496
vn -0.622543 -0.553372 0.553372
vn -0.567735 -0.607161 0.555907
vn 0.622543 -0.553372 0.553372
vn 0.567735 -0.607161 0.555907
vn 0.401601 -0.826244 -0.395017
vn 0.648351 -0.660470 -0.378710
vn -0.401601 -0.826244 -0.395017
vn -0.648351 -0.660470 -0.378710
vn 0.218075 -0.856148 -0.468458
vn 0.222645 -0.854476 -0.469360
vn -0.218075 -0.856148 -0.468458
vn -0.222645 -0.854476 -0.469360
vn -0.171075 -0.807476 -0.564549
vn 0.009908 -0.868607 -0.495403
vn 0.171075 -0.807476 -0.564549
vn -0.009908 -0.868607 -0.495403
vn -0.180308 -0.687547 -0.703398
vn 0.046213 -0.811300 -0.582801
vn 0.180308 -0.687547 -0.703398
vn -0.046213 -0.811300 -0.582801
vn 0.420679 -0.668137 -0.613696
vn -0.426251 -0.822056 -0.377537
vn -0.420679 -0.668137 -0.613696
vn 0.426251 -0.822056 -0.377537
vn 0.437336 -0.844717 -0.308531
vn -0.086092 -0.996211 0.012299
vn -0.437336 -0.844717 -0.308531
vn 0.086092 -0.996211 0.012299
vn 0.343363 -0.933242 -0.105650
vn 0.437362 -0.845567 -0.306154
vn -0.343363 -0.933242 -0.105650
vn -0.437362 -0.845567 -0.306154
vn 0.337090 -0.886548 -0.316865
vn 0.331076 -0.918737 -0.215200
vn -0.337090 -0.886548 -0.316865
vn -0.331076 -0.918737 -0.215200
vn 0.428411 -0.891140 0.149446
vn 0.000000 -0.894427 -0.447214
vn -0.428411 -0.891140 0.149446
vn -0.031654 -0.981288 -0.189927
vn -0.159824 -0.906693 0.390339
vn 0.031654 -0.981288 -0.189927
vn 0.159824 -0.906693 0.390339
vn 0.429933 -0.542535 -0.721674
vn 0.334643 -0.923905 -0.185509
vn -0.429933 -0.542535 -0.721674
vn -0.334643 -0.923905 -0.185509
vn 0.262316 -0.899368 -0.349754
vn 0.058543 -0.995229 -0.078057
vn -0.262316 -0.899368 -0.349754
vn -0.058543 -0.995229 -0.078057
vn -0.062564 -0.988504 -0.137640
vn 0.057130 -0.971217 -0.231242
vn 0.062564 -0.988504 -0.137640
vn -0.057130 -0.971217 -0.231242
vn -0.013557 -0.759187 -0.650732
vn 0.100823 -0.696596 -0.710344
vn 0.013557 -0.759187 -0.650732
vn -0.100823 -0.696596 -0.710344
vn 0.240428 -0.801426 -0.547641
vn 0.132164 -0.792982 -0.594737
vn -0.240428 -0.801426 -0.547641
vn -0.132164 -0.792982 -0.594737
vn 0.482516 -0.864507 -0.140734
vn 0.175467 -0.914934 -0.363467
vn -0.482516 -0.864507 -0.140734
vn -0.175467 -0.914934 -0.363467
vn 0.282128 -0.959237 -0.016382
vn 0.328839 -0.943701 -0.035967
vn -0.282128 -0.959237 -0.016382
vn -0.328839 -0.943701 -0.035967
vn 0.327251 -0.934028 -0.143172
vn 0.323263 -0.942852 -0.080816
vn -0.327251 -0.934028 -0.143172
vn -0.323263 -0.942852 -0.080816
vn -0.030222 -0.997329 0.066489
vn 0.000000 -0.998752 0.049938
vn 0.030222 -0.997329 0.066489
vn 0.000000 -0.997925 -0.064382
vn -0.004435 -0.997775 -0.066518
vn 0.004435 -0.997775 -0.066518
vn 0.000000 -1.000000 0.000000
vn 0.782609 0.130435 -0.608696
vn 0.844653 -0.044455 -0.533465
vn -0.782609 0.130435 -0.608696
vn -0.844653 -0.044455 -0.533465
vn 0.944759 0.265713 0.191904
vn 0.949990 0.158332 0.269164
vn -0.944759 0.265713 0.191904
vn -0.949990 0.158332 0.269164
vn 0.098456 0.452900 0.886108
vn 0.070860 0.382642 0.921175
vn -0.098456 0.452900 0.886108
vn -0.070860 0.382642 0.921175
vn -0.854358 0.085436 0.512615
vn -0.722993 -0.683912 0.097702
vn 0.854358 0.085436 0.512615
vn 0.722993 -0.683912 0.097702
vn 0.398334 -0.270867 -0.876334
vn 0.440225 -0.176090 -0.880451
vn -0.398334 -0.270867 -0.876334
vn -0.440225 -0.176090 -0.880451
vn 0.287348 -0.766261 -0.574696
vn -0.287348 -0.766261 -0.574696
vn -0.666667 -0.333333 0.666667
vn -0.632643 -0.559645 0.535313
vn 0.666667 -0.333333 0.666667
vn 0.632643 -0.559645 0.535313
vn 0.134763 -0.572745 0.808581
vn 0.086206 -0.624994 0.775855
vn -0.134763 -0.572745 0.808581
vn -0.086206 -0.624994 0.775855
vn 0.745356 -0.596285 0.298142
vn 0.766261 -0.574696 0.287348
vn -0.745356 -0.596285 0.298142
vn -0.766261 -0.574696 0.287348
vn 0.411597 -0.308697 -0.857493
vn 0.341605 -0.768610 -0.540874
vn -0.411597 -0.308697 -0.857493
vn -0.341605 -0.768610 -0.540874
vn 0.048634 -0.972689 0.226961
vn 0.040390 -0.969351 0.242338
vn -0.048634 -0.972689 0.226961
vn -0.040390 -0.969351 0.242338
vn 0.130435 -0.956522 -0.260870
vn -0.130435 -0.782609 -0.608696
vn -0.130435 -0.956522 -0.260870
vn 0.130435 -0.782609 -0.608696
vn -0.063119 -0.568075 -0.820553
vn -0.505913 -0.859605 0.071634
vn 0.063119 -0.568075 -0.820553
vn 0.505913 -0.859605 0.071634
vn 0.732467 -0.619780 0.281718
vn -0.577350 -0.577350 -0.577350
vn -0.732467 -0.619780 0.281718
vn 0.577350 -0.577350 -0.577350
vn 0.243483 -0.931951 -0.268670
vn 0.729421 -0.664583 0.162094
vn -0.243483 -0.931951 -0.268670
vn -0.729421 -0.664583 0.162094
vn 0.282005 -0.958816 0.033841
vn 0.332822 -0.939732 0.078311
vn -0.282005 -0.958816 0.033841
vn -0.332822 -0.939732 0.078311
vn 0.816497 -0.408248 0.408248
vn 0.791554 -0.582025 0.186248
vn -0.816497 -0.408248 0.408248
vn -0.791554 -0.582025 0.186248
vn 0.868220 -0.374420 0.325582
vn 0.877266 -0.438633 0.194948
vn -0.868220 -0.374420 0.325582
vn -0.877266 -0.438633 0.194948
vn 0.958645 -0.276745 0.066419
vn 0.850547 -0.363756 0.379804
vn -0.958645 -0.276745 0.066419
vn -0.850547 -0.363756 0.379804
vn 0.357930 -0.417585 -0.835170
vn 0.033615 -0.941210 -0.336146
vn -0.357930 -0.417585 -0.835170
vn -0.033615 -0.941210 -0.336146
vn -0.175113 -0.963119 -0.204298
vn -0.129641 -0.972306 -0.194461
vn 0.175113 -0.963119 -0.204298
vn 0.129641 -0.972306 -0.194461
vn -0.121942 -0.975537 -0.182913
vn -0.447214 -0.894427 0.000000
vn 0.121942 -0.975537 -0.182913
vn 0.447214 -0.894427 0.000000
vn -0.156174 -0.937043 0.312348
vn 0.156174 -0.937043 0.312348
vn -0.158235 -0.271260 0.949410
vn 0.158235 -0.271260 0.949410
vn -0.723842 -0.076194 0.685745
vn -0.646344 -0.209625 0.733687
vn 0.723842 -0.076194 0.685745
vn 0.646344 -0.209625 0.733687
vn -1.000000 0.000000 0.000000
vn 1.000000 0.000000 0.000000
vn 0.305141 -0.118119 -0.944953
vn -0.305141 -0.118119 -0.944953
vn 0.047836 -0.956730 -0.287019
vn 0.021652 -0.952702 -0.303133
vn -0.047836 -0.956730 -0.287019
vn -0.021652 -0.952702 -0.303133
vn 0.135293 -0.927720 -0.347895
vn -0.135293 -0.927720 -0.347895
vn -0.548821 -0.768350 -0.329293
vn -0.468122 -0.854832 -0.223885
vn 0.548821 -0.768350 -0.329293
vn 0.468122 -0.854832 -0.223885
vn -0.494480 -0.861809 -0.113024
vn -0.271039 -0.962187 0.027104
vn 0.494480 -0.861809 -0.113024
vn 0.271039 -0.962187 0.027104
vn -0.270910 -0.962197 0.028025
vn -0.123882 -0.991059 0.049553
vn 0.270910 -0.962197 0.028025
vn 0.123882 -0.991059 0.049553
vn -0.115617 -0.763070 -0.635891
vn -0.159944 -0.447842 -0.879690
vn 0.115617 -0.763070 -0.635891
vn 0.159944 -0.447842 -0.879690
vn 0.424182 -0.658996 -0.621123
vn 0.389976 -0.707398 -0.589498
vn -0.424182 -0.658996 -0.621123
vn -0.389976 -0.707398 -0.589498
vn 0.476654 -0.803909 -0.355712
vn 0.654659 -0.600666 -0.458936
vn -0.476654 -0.803909 -0.355712
vn -0.654659 -0.600666 -0.458936
vn 0.587096 -0.805161 -0.083871
vn 0.537784 -0.835282 -0.114422
vn -0.587096 -0.805161 -0.083871
vn -0.537784 -0.835282 -0.114422
vn 0.573167 -0.809910 0.124602
vn 0.567152 -0.816145 0.110664
vn -0.573167 -0.809910 0.124602
vn -0.567152 -0.816145 0.110664
vn 0.434745 -0.563736 0.702281
vn 0.528094 -0.821479 0.215149
vn -0.434745 -0.563736 0.702281
vn -0.528094 -0.821479 0.215149
vn 0.335769 -0.875398 0.347761
vn 0.179587 -0.588648 0.788189
vn -0.335769 -0.875398 0.347761
vn -0.179587 -0.588648 0.788189
vn 0.145172 -0.914582 0.377446
vn 0.188144 -0.921906 0.338659
vn -0.145172 -0.914582 0.377446
vn -0.188144 -0.921906 0.338659
vn 0.030080 -0.972581 0.230612
vn -0.087030 -0.957326 0.275594
vn -0.030080 -0.972581 0.230612
vn 0.087030 -0.957326 0.275594
vn 0.447549 -0.760834 -0.469927
vn 0.082903 -0.953381 -0.290159
vn -0.447549 -0.760834 -0.469927
vn -0.082903 -0.953381 -0.290159
vn 0.262705 -0.938233 -0.225176
vn 0.301511 -0.904534 -0.301511
vn -0.262705 -0.938233 -0.225176
vn -0.301511 -0.904534 -0.301511
vn -0.276289 -0.911755 -0.303918
vn -0.182574 -0.365148 -0.912871
vn 0.276289 -0.911755 -0.303918
vn 0.182574 -0.365148 -0.912871
vn -0.116248 -0.348743 -0.929981
vn 0.045478 -0.659432 -0.750388
vn 0.116248 -0.348743 -0.929981
vn -0.045478 -0.659432 -0.750388
vn -0.335624 -0.910980 -0.239732
vn -0.370673 -0.883912 -0.285133
vn 0.335624 -0.910980 -0.239732
vn 0.370673 -0.883912 -0.285133
vn -0.439232 -0.897561 -0.038194
vn -0.230391 -0.972761 0.025599
vn 0.439232 -0.897561 -0.038194
vn 0.230391 -0.972761 0.025599
vn -0.024676 -0.913024 0.407159
vn -0.279713 -0.804176 0.524463
vn 0.024676 -0.913024 0.407159
vn 0.279713 -0.804176 0.524463
vn -0.082761 -0.744845 0.662085
vn 0.025206 -0.831786 0.554524
vn 0.082761 -0.744845 0.662085
vn -0.025206 -0.831786 0.554524
vn 0.366677 -0.774096 0.516064
vn 0.350177 -0.669904 0.654679
vn -0.366677 -0.774096 0.516064
vn -0.350177 -0.669904 0.654679
vn 0.498784 -0.685828 0.529958
vn -0.498784 -0.685828 0.529958
vn 0.789474 -0.526316 -0.315789
vn 0.542520 -0.768570 -0.339075
vn -0.789474 -0.526316 -0.315789
vn -0.542520 -0.768570 -0.339075
vn 0.806970 -0.585053 -0.080697
vn 0.830474 -0.553650 -0.061517
vn -0.806970 -0.585053 -0.080697
vn -0.830474 -0.553650 -0.061517
vn 0.786796 -0.605228 0.121046
vn 0.781404 -0.613960 0.111629
vn -0.786796 -0.605228 0.121046
vn -0.781404 -0.613960 0.111629
vn -0.635707 0.363261 0.681115
vn -0.433796 0.148125 0.888752
vn 0.635707 0.363261 0.681115
vn 0.433796 0.148125 0.888752
vn -0.850680 0.378263 0.365049
vn -0.851538 0.367042 0.374383
vn 0.850680 0.378263 0.365049
vn 0.851538 0.367042 0.374383
vn -0.267242 0.454539 0.849692
vn -0.215621 0.405368 0.888360
vn 0.267242 0.454539 0.849692
vn 0.215621 0.405368 0.888360
vn 0.596285 0.298142 0.745356
vn 0.587871 0.308576 0.747790
vn -0.596285 0.298142 0.745356
vn -0.587871 0.308576 0.747790
vn 0.383926 0.296122 0.874593
vn 0.350238 0.329993 0.876606
vn -0.383926 0.296122 0.874593
vn -0.350238 0.329993 0.876606
vn 0.276049 0.291529 0.915865
vn 0.290082 0.283336 0.914097
vn -0.276049 0.291529 0.915865
vn -0.290082 0.283336 0.914097
vn 0.793636 0.570015 0.212659
vn 0.898143 0.434527 0.067270
vn -0.793636 0.570015 0.212659
vn -0.898143 0.434527 0.067270
vn 0.544157 0.371169 -0.752414
vn 0.510781 0.545023 -0.664871
vn -0.544157 0.371169 -0.752414
vn -0.510781 0.545023 -0.664871
vn 0.402739 0.549189 -0.732252
vn 0.369484 0.360071 -0.856639
vn -0.402739 0.549189 -0.732252
vn -0.369484 0.360071 -0.856639
vn 0.043139 0.909519 -0.413418
vn 0.368294 0.636145 -0.677996
vn -0.043139 0.909519 -0.413418
vn -0.368294 0.636145 -0.677996
vn 0.318353 0.943268 -0.094327
vn 0.171779 0.984869 -0.022904
vn -0.318353 0.943268 -0.094327
vn -0.171779 0.984869 -0.022904
vn 0.309502 0.785659 -0.535676
vn -0.064999 0.931651 -0.357494
vn -0.309502 0.785659 -0.535676
vn 0.064999 0.931651 -0.357494
vn 0.077851 0.066317 -0.994757
vn 0.153296 0.213412 -0.964861
vn -0.077851 0.066317 -0.994757
vn -0.153296 0.213412 -0.964861
vn 0.109450 0.208950 -0.971782
vn 0.126029 0.240602 -0.962407
vn -0.109450 0.208950 -0.971782
vn -0.126029 0.240602 -0.962407
vn 0.815044 0.140525 -0.562099
vn 0.939565 0.304100 0.157293
vn -0.815044 0.140525 -0.562099
vn -0.939565 0.304100 0.157293
vn 0.935848 0.323581 0.139584
vn 0.927816 0.324592 0.183840
vn -0.935848 0.323581 0.139584
vn -0.927816 0.324592 0.183840
vn 0.113195 0.993195 -0.027386
vn 0.219221 0.972662 0.076621
vn -0.113195 0.993195 -0.027386
vn -0.219221 0.972662 0.076621
vn -0.209312 0.971069 -0.114950
vn 0.199158 0.925497 -0.322167
vn 0.209312 0.971069 -0.114950
vn -0.199158 0.925497 -0.322167
vn 0.204116 0.971099 0.123707
vn 0.870302 0.119453 -0.477813
vn -0.204116 0.971099 0.123707
vn -0.870302 0.119453 -0.477813
vn 0.919260 0.368188 0.139282
vn 0.920213 0.367211 0.135518
vn -0.919260 0.368188 0.139282
vn -0.920213 0.367211 0.135518
vn 0.931845 0.218842 0.289437
vn 0.924627 0.157607 0.346735
vn -0.931845 0.218842 0.289437
vn -0.924627 0.157607 0.346735
vn 0.913248 0.279734 0.296189
vn 0.907920 0.190370 0.373419
vn -0.913248 0.279734 0.296189
vn -0.907920 0.190370 0.373419
vn 0.882456 0.116368 0.455774
vn 0.991801 -0.030994 0.123975
vn -0.882456 0.116368 0.455774
vn -0.991801 -0.030994 0.123975
vn 0.279448 0.232873 -0.931493
vn 0.079745 0.598089 -0.797452
vn -0.279448 0.232873 -0.931493
vn -0.079745 0.598089 -0.797452
vn 0.367655 0.798255 -0.477093
vn 0.373117 0.799689 -0.470405
vn -0.367655 0.798255 -0.477093
vn -0.373117 0.799689 -0.470405
vn 0.290628 0.455163 -0.841642
vn 0.330884 0.476723 -0.814402
vn -0.290628 0.455163 -0.841642
vn -0.330884 0.476723 -0.814402
vn 0.261968 0.121675 -0.957376
vn 0.299535 0.136844 -0.944220
vn -0.261968 0.121675 -0.957376
vn -0.299535 0.136844 -0.944220
vn 0.299629 0.136195 -0.944285
vn 0.328655 0.229063 -0.916251
vn -0.299629 0.136195 -0.944285
vn -0.328655 0.229063 -0.916251
vn 0.690269 -0.049627 -0.721849
vn 0.956962 0.134120 0.257365
vn -0.690269 -0.049627 -0.721849
vn -0.956962 0.134120 0.257365
vn 0.686895 -0.352088 -0.635774
vn 0.916562 -0.141445 -0.374043
vn -0.686895 -0.352088 -0.635774
vn -0.916562 -0.141445 -0.374043
vn 0.256742 0.949434 -0.180715
vn 0.436826 0.898528 -0.042787
vn -0.256742 0.949434 -0.180715
vn -0.436826 0.898528 -0.042787
vn 0.129094 -0.246297 0.960558
vn 0.112859 -0.226428 0.967467
vn -0.129094 -0.246297 0.960558
vn -0.112859 -0.226428 0.967467
vn 0.120835 0.194679 0.973395
vn 0.131962 0.178751 0.975005
vn -0.120835 0.194679 0.973395
vn -0.131962 0.178751 0.975005
vn 0.313998 0.758452 0.571101
vn 0.387800 0.682753 0.619241
vn -0.313998 0.758452 0.571101
vn -0.387800 0.682753 0.619241
vn 0.323051 0.181716 0.928772
vn 0.495100 0.110022 0.861841
vn -0.323051 0.181716 0.928772
vn -0.495100 0.110022 0.861841
vn 0.045220 -0.604308 0.795467
vn 0.256133 -0.720238 0.644711
vn -0.045220 -0.604308 0.795467
vn -0.256133 -0.720238 0.644711
vn 0.614433 -0.173779 0.769593
vn 0.596551 -0.147905 0.788828
vn -0.614433 -0.173779 0.769593
vn -0.596551 -0.147905 0.788828
vn 0.693451 0.221197 0.685709
vn 0.712453 0.189988 0.675511
vn -0.693451 0.221197 0.685709
vn -0.712453 0.189988 0.675511
vn 0.716578 0.662781 0.217341
vn 0.590457 0.787973 0.174525
vn -0.716578 0.662781 0.217341
vn -0.590457 0.787973 0.174525
vn 0.317910 0.757373 0.570368
vn 0.682297 0.693338 0.231849
vn -0.317910 0.757373 0.570368
vn -0.682297 0.693338 0.231849
vn 0.628942 0.152471 0.762354
vn 0.657395 0.204019 0.725402
vn -0.628942 0.152471 0.762354
vn -0.657395 0.204019 0.725402
vn 0.708828 -0.175199 0.683278
vn 0.728932 -0.126161 0.672861
vn -0.708828 -0.175199 0.683278
vn -0.728932 -0.126161 0.672861
vn 0.688531 -0.615842 0.382966
vn 0.779118 -0.476430 0.407418
vn -0.688531 -0.615842 0.382966
vn -0.779118 -0.476430 0.407418
vn 0.434689 0.096598 0.895385
vn 0.158041 0.267276 0.950572
vn -0.434689 0.096598 0.895385
vn -0.158041 0.267276 0.950572
vn 0.299340 -0.816742 0.493283
vn 0.156987 -0.749842 0.642722
vn -0.299340 -0.816742 0.493283
vn -0.156987 -0.749842 0.642722
vn -0.181856 0.976636 0.114502
vn -0.168134 0.980627 0.100505
vn 0.181856 0.976636 0.114502
vn 0.168134 0.980627 0.100505
vn -0.263846 0.187091 0.946247
vn 0.292531 -0.769709 0.567427
vn 0.263846 0.187091 0.946247
vn -0.292531 -0.769709 0.567427
vn -0.161572 -0.969432 0.184654
vn 0.161572 -0.969432 0.184654
vn 0.966016 -0.199549 -0.164293
vn 0.498048 0.280152 0.820648
vn -0.966016 -0.199549 -0.164293
vn -0.498048 0.280152 0.820648
vn 0.975807 -0.180033 0.124056
vn 0.927613 -0.365680 0.076242
vn -0.975807 -0.180033 0.124056
vn -0.927613 -0.365680 0.076242
vn 0.961281 0.232960 0.147200
vn 0.974975 -0.048967 0.216855
vn -0.961281 0.232960 0.147200
vn -0.974975 -0.048967 0.216855
vn 0.995115 -0.030308 -0.093955
vn 0.961699 0.231485 0.146796
vn -0.995115 -0.030308 -0.093955
vn -0.961699 0.231485 0.146796
vn 0.662473 0.003701 -0.749076
vn 0.746041 -0.091670 -0.659560
vn -0.662473 0.003701 -0.749076
vn -0.746041 -0.091670 -0.659560
vn 0.372238 -0.084555 -0.924278
vn 0.371878 -0.085001 -0.924382
vn -0.372238 -0.084555 -0.924278
vn -0.371878 -0.085001 -0.924382
vn 0.528122 -0.152235 -0.835411
vn 0.398590 -0.273378 -0.875437
vn -0.528122 -0.152235 -0.835411
vn -0.398590 -0.273378 -0.875437
vn 0.307017 -0.794633 -0.523735
vn 0.632788 -0.124661 -0.764224
vn -0.307017 -0.794633 -0.523735
vn -0.632788 -0.124661 -0.764224
vn 0.732489 -0.240675 -0.636817
vn -0.732489 -0.240675 -0.636817
vn 0.263732 -0.853252 -0.449896
vn -0.263732 -0.853252 -0.449896
vn 0.538262 0.793445 -0.284111
vn 0.570582 0.745582 -0.344303
vn -0.538262 0.793445 -0.284111
vn -0.570582 0.745582 -0.344303
vn 0.431030 0.852017 -0.297118
vn 0.562892 0.783325 -0.263733
vn -0.431030 0.852017 -0.297118
vn -0.562892 0.783325 -0.263733
vn 0.456721 0.432033 -0.777659
vn 0.105938 0.385660 -0.916539
vn -0.456721 0.432033 -0.777659
vn -0.105938 0.385660 -0.916539
vn 0.744954 0.244671 -0.620629
vn 0.697614 0.307746 -0.647014
vn -0.744954 0.244671 -0.620629
vn -0.697614 0.307746 -0.647014
vn 0.497205 0.747333 -0.440774
vn -0.497205 0.747333 -0.440774
vn 0.259062 -0.851203 0.456442
vn 0.480811 -0.839063 0.254547
vn -0.259062 -0.851203 0.456442
vn -0.480811 -0.839063 0.254547
vn 0.464866 -0.846545 0.259346
vn 0.446708 -0.889355 0.097464
vn -0.464866 -0.846545 0.259346
vn -0.446708 -0.889355 0.097464
vn 0.415279 -0.901244 0.123700
vn 0.145938 -0.985080 0.091211
vn -0.415279 -0.901244 0.123700
vn -0.145938 -0.985080 0.091211
vn 0.196561 -0.979166 -0.050960
vn 0.283452 -0.953431 -0.103074
vn -0.196561 -0.979166 -0.050960
vn -0.283452 -0.953431 -0.103074
vn 0.372046 -0.903540 0.212598
vn 0.505826 -0.826594 -0.246744
vn -0.372046 -0.903540 0.212598
vn -0.505826 -0.826594 -0.246744
vn 0.650897 -0.733990 -0.193884
vn 0.595688 -0.704941 -0.384986
vn -0.650897 -0.733990 -0.193884
vn -0.595688 -0.704941 -0.384986
vn 0.407491 -0.520087 0.750641
vn 0.484318 -0.673834 0.558018
vn -0.407491 -0.520087 0.750641
vn -0.484318 -0.673834 0.558018
vn -0.265483 -0.491144 0.829636
vn -0.267527 -0.486412 0.831765
vn 0.265483 -0.491144 0.829636
vn 0.267527 -0.486412 0.831765
vn -0.863868 -0.431934 0.259161
vn -0.800022 -0.562978 0.207413
vn 0.863868 -0.431934 0.259161
vn 0.800022 -0.562978 0.207413
vn -0.528033 -0.770643 -0.356779
vn -0.522496 -0.774523 -0.356527
vn 0.528033 -0.770643 -0.356779
vn 0.522496 -0.774523 -0.356527
vn 0.415649 -0.665808 -0.619625
vn 0.486190 -0.703005 -0.519041
vn -0.415649 -0.665808 -0.619625
vn -0.486190 -0.703005 -0.519041
vn 0.688802 -0.574002 -0.442802
vn 0.710358 -0.535588 -0.456659
vn -0.688802 -0.574002 -0.442802
vn -0.710358 -0.535588 -0.456659
vn 0.622061 0.115081 -0.774466
vn 0.996972 0.067975 -0.037764
vn -0.622061 0.115081 -0.774466
vn -0.996972 0.067975 -0.037764
vn -0.184950 -0.950557 0.249468
vn -0.197104 -0.928728 0.314030
vn 0.184950 -0.950557 0.249468
vn 0.197104 -0.928728 0.314030
vn 0.904560 0.179205 -0.386856
vn 0.904186 0.233235 -0.357840
vn -0.904560 0.179205 -0.386856
vn -0.904186 0.233235 -0.357840
vn 0.178174 -0.979958 -0.089087
vn 0.039984 -0.939624 0.339864
vn -0.178174 -0.979958 -0.089087
vn -0.039984 -0.939624 0.339864
vn -0.233516 -0.374854 0.897192
vn 0.273408 -0.322097 0.906367
vn 0.233516 -0.374854 0.897192
vn -0.273408 -0.322097 0.906367
vn 0.580247 -0.790123 0.197531
vn 0.606788 -0.513436 -0.606788
vn -0.580247 -0.790123 0.197531
vn -0.606788 -0.513436 -0.606788
vn 0.531271 -0.613376 0.584398
vn -0.531271 -0.613376 0.584398
vn 0.749675 -0.603905 -0.270716
vn 0.701334 0.127515 -0.701334
vn -0.749675 -0.603905 -0.270716
vn -0.701334 0.127515 -0.701334
vn 0.689502 -0.618985 -0.376092
vn 0.457983 -0.771339 -0.441913
vn -0.689502 -0.618985 -0.376092
vn -0.457983 -0.771339 -0.441913
vn 0.466760 -0.771169 -0.432937
vn 0.715512 -0.561638 -0.415458
vn -0.466760 -0.771169 -0.432937
vn -0.715512 -0.561638 -0.415458
vn 0.877870 -0.007601 -0.478838
vn 0.827147 0.180171 0.532322
vn -0.877870 -0.007601 -0.478838
vn -0.827147 0.180171 0.532322
vn 0.912871 0.182574 -0.365148
vn 0.900500 0.033352 -0.433574
vn -0.912871 0.182574 -0.365148
vn -0.900500 0.033352 -0.433574
vn 0.997202 0.072524 -0.018131
vn -0.997202 0.072524 -0.018131
vn 0.766105 -0.090894 -0.636256
vn 0.689496 -0.288335 -0.664423
vn -0.766105 -0.090894 -0.636256
vn -0.689496 -0.288335 -0.664423
vn 0.775715 -0.129286 -0.617699
vn 0.797077 -0.085401 -0.597808
vn -0.775715 -0.129286 -0.617699
vn -0.797077 -0.085401 -0.597808
vn 0.702247 -0.117041 -0.702247
vn -0.702247 -0.117041 -0.702247
vn 0.122756 0.143215 0.982049
vn 0.242338 -0.040390 0.969351
vn -0.122756 0.143215 0.982049
vn -0.242338 -0.040390 0.969351
vn 0.937043 -0.156174 0.312348
vn 0.931907 -0.097074 0.349465
vn -0.937043 -0.156174 0.312348
vn -0.931907 -0.097074 0.349465
vn 0.707107 0.000000 -0.707107
vn 0.621336 -0.103556 -0.776671
vn -0.707107 0.000000 -0.707107
vn -0.621336 -0.103556 -0.776671
vn -0.015712 -0.141404 0.989827
vn 0.000000 0.000000 1.000000
vn 0.015712 -0.141404 0.989827
vn 0.626572 -0.295553 -0.721149
vn 0.619724 -0.374173 -0.689882
vn -0.626572 -0.295553 -0.721149
vn -0.619724 -0.374173 -0.689882
vn 0.271445 -0.335314 -0.902154
vn 0.275241 -0.385337 -0.880771
vn -0.271445 -0.335314 -0.902154
vn -0.275241 -0.385337 -0.880771
vn -0.865125 0.126604 -0.485314
vn -0.792930 0.308934 -0.525187
vn 0.865125 0.126604 -0.485314
vn 0.792930 0.308934 -0.525187
vn -0.847427 0.466085 0.254228
vn -0.816910 0.533823 0.218382
vn 0.847427 0.466085 0.254228
vn 0.816910 0.533823 0.218382
vn -0.635053 0.498970 0.589692
vn -0.483417 0.069060 0.872662
vn 0.635053 0.498970 0.589692
vn 0.483417 0.069060 0.872662
vn -0.172328 0.024618 0.984732
vn 0.040373 -0.141306 0.989142
vn 0.172328 0.024618 0.984732
vn -0.040373 -0.141306 0.989142
vn 0.149019 -0.987254 0.055882
vn 0.137516 -0.990118 -0.027503
vn -0.149019 -0.987254 0.055882
vn -0.137516 -0.990118 -0.027503
vn 0.312348 -0.937043 0.156174
vn 0.339983 -0.939953 -0.029999
vn -0.312348 -0.937043 0.156174
vn -0.339983 -0.939953 -0.029999
vn 0.322800 -0.945343 -0.046114
vn 0.300945 -0.949135 0.092599
vn -0.322800 -0.945343 -0.046114
vn -0.300945 -0.949135 0.092599
vn 0.155869 -0.987170 -0.034638
vn 0.180460 -0.981252 0.067673
vn -0.155869 -0.987170 -0.034638
vn -0.180460 -0.981252 0.067673
vn 0.567881 -0.800507 0.191574
vn -0.009916 -0.922149 0.386708
vn -0.567881 -0.800507 0.191574
vn 0.009916 -0.922149 0.386708
vn 0.400809 -0.916134 -0.007157
vn 0.399963 -0.914202 -0.065300
vn -0.400809 -0.916134 -0.007157
vn -0.399963 -0.914202 -0.065300
vn 0.082885 -0.994618 -0.062164
vn 0.361833 -0.930428 -0.058152
vn -0.082885 -0.994618 -0.062164
vn -0.361833 -0.930428 -0.058152
vn 0.135079 -0.990579 -0.022513
vn -0.135079 -0.990579 -0.022513
vn -0.404820 -0.520483 0.751809
vn 0.421637 -0.737865 -0.527046
vn 0.404820 -0.520483 0.751809
vn -0.421637 -0.737865 -0.527046
vn 0.557086 -0.817060 -0.148556
vn 0.669312 -0.720798 0.180199
vn -0.557086 -0.817060 -0.148556
vn -0.669312 -0.720798 0.180199
vn 0.452596 -0.873859 -0.177557
vn 0.443738 -0.870158 -0.214293
vn -0.452596 -0.873859 -0.177557
vn -0.443738 -0.870158 -0.214293
vn 0.411054 -0.340588 -0.845597
vn 0.493213 -0.863575 -0.104785
vn -0.411054 -0.340588 -0.845597
vn -0.493213 -0.863575 -0.104785
vn 0.577089 -0.787487 0.216409
vn 0.500196 -0.818240 0.283348
vn -0.577089 -0.787487 0.216409
vn -0.500196 -0.818240 0.283348
vn 0.297964 -0.757979 0.580246
vn -0.297964 -0.757979 0.580246
vn 0.093117 0.069241 -0.993245
vn 0.092924 0.094399 -0.991188
vn -0.093117 0.069241 -0.993245
vn -0.092924 0.094399 -0.991188
vn 0.516067 0.081209 -0.852690
vn 0.468784 -0.144241 -0.871457
vn -0.516067 0.081209 -0.852690
vn -0.468784 -0.144241 -0.871457
vn 0.924652 -0.284508 -0.253129
vn 0.934096 -0.260168 -0.244495
vn -0.924652 -0.284508 -0.253129
vn -0.934096 -0.260168 -0.244495
vn 0.847951 -0.010599 0.529969
vn 0.832821 0.067585 0.549401
vn -0.847951 -0.010599 0.529969
vn -0.832821 0.067585 0.549401
vn -0.298426 0.318470 0.899733
vn -0.191998 0.217498 0.956991
vn 0.298426 0.318470 0.899733
vn 0.191998 0.217498 0.956991
vn -0.542987 0.186104 0.818859
vn -0.355407 0.072321 0.931910
vn 0.542987 0.186104 0.818859
vn 0.355407 0.072321 0.931910
vn -0.548228 0.836320 -0.003883
vn -0.521508 0.853020 -0.019655
vn 0.548228 0.836320 -0.003883
vn 0.521508 0.853020 -0.019655
vn -0.255561 0.963884 -0.074948
vn -0.146646 0.989134 0.010386
vn 0.255561 0.963884 -0.074948
vn 0.146646 0.989134 0.010386
vn 0.404624 0.914097 0.026581
vn -0.404624 0.914097 0.026581
vn -0.748378 0.027050 0.662720
vn -0.821852 -0.084053 0.563467
vn 0.748378 0.027050 0.662720
vn 0.821852 -0.084053 0.563467
vn 0.684353 0.708794 -0.171088
vn 0.419982 0.878144 -0.229081
vn -0.684353 0.708794 -0.171088
vn -0.419982 0.878144 -0.229081
vn -0.360377 0.429020 -0.828294
vn -0.068684 0.081767 -0.994282
vn 0.360377 0.429020 -0.828294
vn 0.068684 0.081767 -0.994282
f 1//1 2//1 3//1
f 3//2 4//2 1//2
f 5//3 6//3 7//3
f 7//4 8//4 5//4
f 4//5 3//5 9//5
f 9//6 10//6 4//6
f 11//7 5//7 8//7
f 8//8 12//8 11//8
f 3//9 13//9 14//9
f 14//10 9//10 3//10
f 15//11 16//11 5//11
f 5//12 11//12 15//12
f 2//13 17//13 13//13
f 13//14 3//14 2//14
f 16//15 18//15 6//15
f 6//16 5//16 16//16
f 17//17 19//17 20//17
f 20//18 13//18 17//18
f 21//19 22//19 18//19
f 18//20 16//20 21//20
f 13//21 20//21 23//21
f 23//22 14//22 13//22
f 24//23 21//23 16//23
f 16//24 15//24 24//24
f 20//25 25//25 26//25
f 26//26 23//26 20//26
f 27//27 28//27 21//27
f 21//28 24//28 27//28
f 19//29 29//29 25//29
f 25//30 20//30 19//30
f 28//31 30//31 22//31
f 22//32 21//32 28//32
f 29//33 31//33 32//33
f 32//34 25//34 29//34
f 33//35 34//35 30//35
f 30//36 28//36 33//36
f 25//37 32//37 35//37
f 35//38 26//38 25//38
f 36//39 33//39 28//39
f 28//40 27//40 36//40
f 32//41 37//41 38//41
f 38//42 35//42 32//42
f 39//43 40//43 33//43
f 33//44 36//44 39//44
f 31//45 41//45 37//45
f 37//46 32//46 31//46
f 40//47 42//47 34//47
f 34//48 33//48 40//48
f 41//49 43//49 44//49
f 44//50 37//50 41//50
f 45//51 46//51 42//51
f 42//52 40//52 45//52
f 37//53 44//53 47//53
f 47//54 38//54 37//54
f 48//55 45//55 40//55
f 40//56 39//56 48//56
f 44//57 4//57 10//57
f 10//58 47//58 44//58
f 12//59 8//59 45//59
f 45//60 48//60 12//60
f 43//61 1//61 4//61
f 4//62 44//62 43//62
f 8//63 7//63 46//63
f 46//64 45//64 8//64
f 1//65 43//65 49//65
f 49//66 50//66 1//66
f 51//67 46//67 7//67
f 7//68 52//68 51//68
f 43//69 41//69 53//69
f 53//70 49//70 43//70
f 54//71 42//71 46//71
f 46//72 51//72 54//72
f 41//73 31//73 55//73
f 55//74 53//74 41//74
f 56//75 34//75 42//75
f 42//76 54//76 56//76
f 31//77 29//77 57//77
f 57//78 55//78 31//78
f 58//79 30//79 34//79
f 34//80 56//80 58//80
f 29//81 19//81 59//81
f 59//82 57//82 29//82
f 60//83 22//83 30//83
f 30//84 58//84 60//84
f 19//85 17//85 61//85
f 61//86 59//86 19//86
f 62//87 18//87 22//87
f 22//88 60//88 62//88
f 17//89 2//89 63//89
f 63//90 61//90 17//90
f 64//91 6//91 18//91
f 18//92 62//92 64//92
f 2//93 1//93 50//93
f 50//94 63//94 2//94
f 52//95 7//95 6//95
f 6//96 64//96 52//96
f 65//97 63//97 50//97
f 52//98 64//98 66//98
f 61//99 63//99 65//99
f 66//100 64//100 62//100
f 65//101 59//101 61//101
f 62//102 60//102 66//102
f 65//103 57//103 59//103
f 60//104 58//104 66//104
f 65//105 55//105 57//105
f 58//106 56//106 66//106
f 65//107 53//107 55//107
f 56//108 54//108 66//108
f 65//109 49//109 53//109
f 54//110 51//110 66//110
f 65//111 50//111 49//111
f 51//112 52//112 66//112
f 67//113 68//113 69//113
f 69//114 70//114 67//114
f 69//115 71//115 72//115
f 72//116 70//116 69//116
f 73//117 74//117 68//117
f 68//118 67//118 73//118
f 71//119 75//119 76//119
f 76//120 72//120 71//120
f 77//121 78//121 74//121
f 74//122 73//122 77//122
f 75//123 79//123 80//123
f 80//124 76//124 75//124
f 81//125 82//125 78//125
f 78//126 77//126 81//126
f 79//127 83//127 84//127
f 84//128 80//128 79//128
f 85//129 86//129 82//129
f 82//130 81//130 85//130
f 83//131 87//131 88//131
f 88//132 84//132 83//132
f 89//133 90//133 91//133
f 91//134 92//134 89//134
f 93//135 94//135 95//135
f 95//136 96//136 93//136
f 90//137 97//137 98//137
f 98//138 91//138 90//138
f 99//139 100//139 94//139
f 94//140 93//140 99//140
f 97//141 101//141 102//141
f 102//142 98//142 97//142
f 103//143 104//143 100//143
f 100//144 99//144 103//144
f 101//145 105//145 106//145
f 106//146 102//146 101//146
f 107//147 108//147 104//147
f 104//148 103//148 107//148
f 105//149 109//149 110//149
f 110//150 106//150 105//150
f 111//151 112//151 108//151
f 108//152 107//152 111//152
f 109//153 113//153 114//153
f 114//154 110//154 109//154
f 115//155 116//155 112//155
f 112//156 111//156 115//156
f 113//157 117//157 118//157
f 118//158 114//158 113//158
f 119//159 120//159 116//159
f 116//160 115//160 119//160
f 117//161 121//161 122//161
f 122//162 118//162 117//162
f 123//163 124//163 120//163
f 120//164 119//164 123//164
f 121//165 125//165 126//165
f 126//166 122//166 121//166
f 127//167 128//167 124//167
f 124//168 123//168 127//168
f 125//169 129//169 130//169
f 130//170 126//170 125//170
f 130//171 129//171 128//171
f 128//172 127//172 130//172
f 131//173 132//173 122//173
f 122//174 126//174 131//174
f 123//175 133//175 134//175
f 134//176 127//176 123//176
f 132//177 135//177 118//177
f 118//178 122//178 132//178
f 119//179 136//179 133//179
f 133//180 123//180 119//180
f 137//181 114//181 118//181
f 118//182 135//182 137//182
f 119//183 115//183 138//183
f 138//184 136//184 119//184
f 139//185 110//185 114//185
f 114//186 137//186 139//186
f 115//187 111//187 140//187
f 140//188 138//188 115//188
f 141//189 106//189 110//189
f 110//190 139//190 141//190
f 111//191 107//191 142//191
f 142//192 140//192 111//192
f 143//193 102//193 106//193
f 106//194 141//194 143//194
f 107//195 103//195 144//195
f 144//196 142//196 107//196
f 145//197 98//197 102//197
f 102//198 143//198 145//198
f 103//199 99//199 146//199
f 146//200 144//200 103//200
f 147//201 91//201 98//201
f 98//202 145//202 147//202
f 99//203 93//203 148//203
f 148//204 146//204 99//204
f 20//205 92//205 91//205
f 91//206 147//206 20//206
f 93//207 96//207 21//207
f 21//206 148//206 93//206
f 20//208 149//208 150//208
f 150//209 92//209 20//209
f 150//210 151//210 21//210
f 21//211 96//211 150//211
f 131//212 126//212 130//212
f 130//213 152//213 131//213
f 130//214 127//214 134//214
f 134//215 153//215 130//215
f 152//216 130//216 154//216
f 154//217 155//217 152//217
f 154//218 130//218 153//218
f 153//219 156//219 154//219
f 150//220 149//220 155//220
f 155//221 154//221 150//221
f 156//222 151//222 150//222
f 150//223 154//223 156//223
f 157//224 158//224 69//224
f 69//225 68//225 157//225
f 69//226 158//226 159//226
f 159//227 71//227 69//227
f 160//228 157//228 68//228
f 68//229 74//229 160//229
f 71//230 159//230 161//230
f 161//231 75//231 71//231
f 162//232 160//232 74//232
f 74//233 78//233 162//233
f 75//234 161//234 163//234
f 163//235 79//235 75//235
f 86//236 164//236 165//236
f 165//237 82//237 86//237
f 166//238 167//238 87//238
f 87//239 83//239 166//239
f 162//240 78//240 82//240
f 82//241 165//241 162//241
f 83//242 79//242 163//242
f 163//243 166//243 83//243
f 168//244 169//244 170//244
f 170//245 164//245 168//245
f 170//246 169//246 171//246
f 171//245 167//245 170//245
f 165//247 164//247 170//247
f 170//248 172//248 165//248
f 170//247 167//247 166//247
f 166//249 172//249 170//249
f 173//250 162//250 165//250
f 165//250 172//250 173//250
f 166//250 163//250 173//250
f 173//250 172//250 166//250
f 174//251 175//251 176//251
f 176//252 168//252 174//252
f 177//253 178//253 179//253
f 179//254 171//254 177//254
f 180//255 181//255 175//255
f 175//256 174//256 180//256
f 178//257 182//257 183//257
f 183//258 179//258 178//258
f 184//259 185//259 181//259
f 181//260 180//260 184//260
f 182//261 186//261 184//261
f 184//262 183//262 182//262
f 187//263 188//263 185//263
f 185//264 184//264 187//264
f 186//265 188//265 187//265
f 187//266 184//266 186//266
f 169//267 168//267 176//267
f 176//268 189//268 169//268
f 177//269 171//269 169//269
f 169//270 189//270 177//270
f 189//271 176//271 190//271
f 190//271 191//271 189//271
f 192//272 177//272 189//272
f 189//272 191//272 192//272
f 188//273 193//273 194//273
f 194//274 185//274 188//274
f 195//275 193//275 188//275
f 188//276 186//276 195//276
f 185//277 194//277 196//277
f 196//278 181//278 185//278
f 197//279 195//279 186//279
f 186//280 182//280 197//280
f 181//281 196//281 198//281
f 198//282 175//282 181//282
f 199//283 197//283 182//283
f 182//284 178//284 199//284
f 175//285 198//285 190//285
f 190//286 176//286 175//286
f 192//287 199//287 178//287
f 178//288 177//288 192//288
f 193//289 198//289 196//289
f 196//290 194//290 193//290
f 197//291 199//291 193//291
f 193//292 195//292 197//292
f 193//293 191//293 190//293
f 190//294 198//294 193//294
f 192//295 191//295 193//295
f 193//296 199//296 192//296
f 184//297 180//297 92//297
f 92//298 150//298 184//298
f 96//299 183//299 184//299
f 184//300 150//300 96//300
f 180//301 174//301 200//301
f 200//302 92//302 180//302
f 201//303 179//303 183//303
f 183//304 96//304 201//304
f 174//305 168//305 202//305
f 202//306 200//306 174//306
f 203//307 171//307 179//307
f 179//308 201//308 203//308
f 168//309 164//309 86//309
f 86//310 202//310 168//310
f 87//311 167//311 171//311
f 171//312 203//312 87//312
f 85//313 204//313 202//313
f 202//314 86//314 85//314
f 203//315 205//315 88//315
f 88//316 87//316 203//316
f 204//317 206//317 200//317
f 200//318 202//318 204//318
f 201//319 207//319 205//319
f 205//320 203//320 201//320
f 89//321 92//321 200//321
f 200//322 206//322 89//322
f 201//323 96//323 95//323
f 95//324 207//324 201//324
f 162//325 173//325 208//325
f 208//326 209//326 162//326
f 208//327 173//327 163//327
f 163//328 210//328 208//328
f 160//329 162//329 209//329
f 209//330 211//330 160//330
f 210//331 163//331 161//331
f 161//332 212//332 210//332
f 157//333 160//333 211//333
f 211//334 213//334 157//334
f 212//335 161//335 159//335
f 159//336 214//336 212//336
f 158//337 157//337 213//337
f 213//250 215//250 158//250
f 214//338 159//338 158//338
f 158//250 215//250 214//250
f 215//339 213//339 216//339
f 216//339 217//339 215//339
f 218//340 214//340 215//340
f 215//340 217//340 218//340
f 213//341 211//341 219//341
f 219//342 216//342 213//342
f 220//343 212//343 214//343
f 214//344 218//344 220//344
f 211//345 209//345 221//345
f 221//345 219//345 211//345
f 222//346 210//346 212//346
f 212//346 220//346 222//346
f 209//347 208//347 223//347
f 223//347 221//347 209//347
f 223//348 208//348 210//348
f 210//348 222//348 223//348
f 223//349 217//349 216//349
f 216//350 221//350 223//350
f 218//351 217//351 223//351
f 223//352 222//352 218//352
f 221//353 216//353 219//353
f 220//354 218//354 222//354
f 155//355 149//355 224//355
f 224//356 225//356 155//356
f 226//357 151//357 156//357
f 156//358 227//358 226//358
f 152//359 155//359 225//359
f 225//360 228//360 152//360
f 227//361 156//361 153//361
f 153//362 229//362 227//362
f 131//363 152//363 228//363
f 228//364 230//364 131//364
f 229//365 153//365 134//365
f 134//366 231//366 229//366
f 149//302 20//302 232//302
f 232//355 224//355 149//355
f 233//304 21//304 151//304
f 151//357 226//357 233//357
f 20//367 147//367 234//367
f 234//368 232//368 20//368
f 235//369 148//369 21//369
f 21//370 233//370 235//370
f 147//371 145//371 236//371
f 236//372 234//372 147//372
f 237//373 146//373 148//373
f 148//374 235//374 237//374
f 145//375 143//375 238//375
f 238//376 236//376 145//376
f 239//377 144//377 146//377
f 146//378 237//378 239//378
f 143//379 141//379 240//379
f 240//380 238//380 143//380
f 241//381 142//381 144//381
f 144//382 239//382 241//382
f 141//383 139//383 242//383
f 242//384 240//384 141//384
f 243//385 140//385 142//385
f 142//386 241//386 243//386
f 139//387 137//387 244//387
f 244//388 242//388 139//388
f 245//389 138//389 140//389
f 140//390 243//390 245//390
f 137//391 135//391 246//391
f 246//392 244//392 137//392
f 247//393 136//393 138//393
f 138//394 245//394 247//394
f 135//395 132//395 248//395
f 248//396 246//396 135//396
f 249//397 133//397 136//397
f 136//398 247//398 249//398
f 132//399 131//399 230//399
f 230//400 248//400 132//400
f 231//401 134//401 133//401
f 133//402 249//402 231//402
f 248//403 230//403 250//403
f 250//404 251//404 248//404
f 252//405 231//405 249//405
f 249//406 253//406 252//406
f 246//407 248//407 251//407
f 251//408 254//408 246//408
f 253//409 249//409 247//409
f 247//410 255//410 253//410
f 244//411 246//411 254//411
f 254//412 256//412 244//412
f 255//413 247//413 245//413
f 245//414 257//414 255//414
f 242//415 244//415 256//415
f 256//416 258//416 242//416
f 257//417 245//417 243//417
f 243//418 259//418 257//418
f 240//419 242//419 258//419
f 258//420 260//420 240//420
f 259//421 243//421 241//421
f 241//422 261//422 259//422
f 238//423 240//423 260//423
f 260//424 262//424 238//424
f 261//425 241//425 239//425
f 239//426 263//426 261//426
f 236//427 238//427 262//427
f 262//428 264//428 236//428
f 263//429 239//429 237//429
f 237//430 265//430 263//430
f 234//431 236//431 264//431
f 264//432 266//432 234//432
f 265//433 237//433 235//433
f 235//434 267//434 265//434
f 232//435 234//435 266//435
f 266//436 268//436 232//436
f 267//437 235//437 233//437
f 233//438 269//438 267//438
f 224//439 232//439 268//439
f 268//439 270//439 224//439
f 269//440 233//440 226//440
f 226//440 271//440 269//440
f 230//441 228//441 272//441
f 272//442 250//442 230//442
f 273//443 229//443 231//443
f 231//444 252//444 273//444
f 228//445 225//445 274//445
f 274//446 272//446 228//446
f 275//447 227//447 229//447
f 229//448 273//448 275//448
f 225//449 224//449 270//449
f 270//450 274//450 225//450
f 271//451 226//451 227//451
f 227//452 275//452 271//452
f 129//453 125//453 276//453
f 276//454 277//454 129//454
f 278//455 128//455 129//455
f 129//456 277//456 278//456
f 125//457 121//457 279//457
f 279//458 276//458 125//458
f 280//459 124//459 128//459
f 128//460 278//460 280//460
f 121//461 117//461 281//461
f 281//462 279//462 121//462
f 282//463 120//463 124//463
f 124//464 280//464 282//464
f 117//465 113//465 283//465
f 283//466 281//466 117//466
f 284//467 116//467 120//467
f 120//468 282//468 284//468
f 113//469 109//469 285//469
f 285//470 283//470 113//470
f 286//471 112//471 116//471
f 116//472 284//472 286//472
f 109//473 105//473 287//473
f 287//474 285//474 109//474
f 288//475 108//475 112//475
f 112//476 286//476 288//476
f 105//477 101//477 289//477
f 289//478 287//478 105//478
f 290//479 104//479 108//479
f 108//480 288//480 290//480
f 101//481 97//481 291//481
f 291//482 289//482 101//482
f 292//483 100//483 104//483
f 104//484 290//484 292//484
f 97//485 90//485 293//485
f 293//486 291//486 97//486
f 294//487 94//487 100//487
f 100//488 292//488 294//488
f 295//489 296//489 297//489
f 297//490 298//490 295//490
f 299//491 296//491 295//491
f 295//492 300//492 299//492
f 301//493 295//493 298//493
f 298//494 302//494 301//494
f 300//495 295//495 301//495
f 301//496 303//496 300//496
f 304//497 301//497 302//497
f 302//498 305//498 304//498
f 303//499 301//499 304//499
f 304//500 306//500 303//500
f 67//501 70//501 304//501
f 304//502 305//502 67//502
f 304//503 70//503 72//503
f 72//504 306//504 304//504
f 73//505 67//505 305//505
f 305//506 307//506 73//506
f 306//507 72//507 76//507
f 76//508 308//508 306//508
f 77//509 73//509 307//509
f 307//510 309//510 77//510
f 308//511 76//511 80//511
f 80//512 310//512 308//512
f 81//513 77//513 309//513
f 309//514 311//514 81//514
f 310//515 80//515 84//515
f 84//516 312//516 310//516
f 309//517 302//517 298//517
f 298//518 311//518 309//518
f 300//519 303//519 310//519
f 310//520 312//520 300//520
f 309//521 307//521 305//521
f 305//522 302//522 309//522
f 306//523 308//523 310//523
f 310//524 303//524 306//524
f 313//525 311//525 298//525
f 298//526 297//526 313//526
f 300//527 312//527 314//527
f 314//528 299//528 300//528
f 85//529 81//529 311//529
f 311//530 313//530 85//530
f 312//531 84//531 88//531
f 88//532 314//532 312//532
f 204//533 315//533 316//533
f 316//534 206//534 204//534
f 317//535 318//535 205//535
f 205//536 207//536 317//536
f 85//537 313//537 315//537
f 315//538 204//538 85//538
f 318//539 314//539 88//539
f 88//540 205//540 318//540
f 89//541 206//541 316//541
f 316//542 319//542 89//542
f 317//543 207//543 95//543
f 95//544 320//544 317//544
f 89//545 319//545 293//545
f 293//546 90//546 89//546
f 294//547 320//547 95//547
f 95//548 94//548 294//548
f 321//549 322//549 323//549
f 323//550 324//550 321//550
f 325//551 326//551 321//551
f 321//552 324//552 325//552
f 324//553 323//553 327//553
f 327//554 328//554 324//554
f 329//555 325//555 324//555
f 324//556 328//556 329//556
f 328//557 327//557 330//557
f 330//558 331//558 328//558
f 332//559 329//559 328//559
f 328//560 331//560 332//560
f 331//561 330//561 297//561
f 297//562 296//562 331//562
f 299//563 332//563 331//563
f 331//564 296//564 299//564
f 313//565 297//565 330//565
f 330//566 315//566 313//566
f 332//567 299//567 314//567
f 314//568 318//568 332//568
f 289//569 291//569 333//569
f 333//570 334//570 289//570
f 335//571 292//571 290//571
f 290//572 336//572 335//572
f 337//573 338//573 322//573
f 322//574 321//574 337//574
f 326//575 339//575 337//575
f 337//576 321//576 326//576
f 340//577 341//577 342//577
f 342//578 343//578 340//578
f 344//579 345//579 340//579
f 340//580 343//580 344//580
f 343//581 342//581 346//581
f 346//582 347//582 343//582
f 348//583 344//583 343//583
f 343//584 347//584 348//584
f 347//585 346//585 338//585
f 338//586 337//586 347//586
f 339//587 348//587 347//587
f 347//588 337//588 339//588
f 285//589 287//589 349//589
f 349//590 350//590 285//590
f 351//591 288//591 286//591
f 286//592 352//592 351//592
f 350//593 349//593 353//593
f 353//594 354//594 350//594
f 355//595 351//595 352//595
f 352//596 356//596 355//596
f 354//597 353//597 357//597
f 357//598 358//598 354//598
f 359//599 355//599 356//599
f 356//600 360//600 359//600
f 358//601 357//601 361//601
f 361//602 362//602 358//602
f 363//603 359//603 360//603
f 360//604 364//604 363//604
f 365//605 366//605 362//605
f 362//606 361//606 365//606
f 364//607 367//607 368//607
f 368//608 363//608 364//608
f 338//609 346//609 362//609
f 362//610 366//610 338//610
f 364//611 348//611 339//611
f 339//612 367//612 364//612
f 346//613 342//613 358//613
f 358//614 362//614 346//614
f 360//615 344//615 348//615
f 348//616 364//616 360//616
f 342//617 341//617 354//617
f 354//618 358//618 342//618
f 356//619 345//619 344//619
f 344//620 360//620 356//620
f 341//621 369//621 350//621
f 350//622 354//622 341//622
f 352//623 370//623 345//623
f 345//624 356//624 352//624
f 283//625 285//625 350//625
f 350//626 369//626 283//626
f 352//627 286//627 284//627
f 284//628 370//628 352//628
f 371//629 369//629 341//629
f 341//630 340//630 371//630
f 345//631 370//631 371//631
f 371//632 340//632 345//632
f 276//633 279//633 281//633
f 281//634 283//634 276//634
f 282//635 280//635 278//635
f 278//636 284//636 282//636
f 276//637 283//637 369//637
f 369//638 371//638 276//638
f 370//639 284//639 278//639
f 278//640 371//640 370//640
f 277//641 276//641 371//641
f 371//642 278//642 277//642
f 287//643 289//643 334//643
f 334//644 349//644 287//644
f 336//645 290//645 288//645
f 288//646 351//646 336//646
f 334//647 372//647 353//647
f 353//648 349//648 334//648
f 355//649 373//649 336//649
f 336//650 351//650 355//650
f 372//651 374//651 357//651
f 357//652 353//652 372//652
f 359//653 375//653 373//653
f 373//654 355//654 359//654
f 365//655 361//655 357//655
f 357//656 374//656 365//656
f 359//657 363//657 368//657
f 368//658 375//658 359//658
f 330//659 327//659 376//659
f 376//660 377//660 330//660
f 378//661 329//661 332//661
f 332//662 379//662 378//662
f 333//663 377//663 376//663
f 376//664 380//664 333//664
f 378//665 379//665 335//665
f 335//666 381//666 378//666
f 291//667 293//667 377//667
f 377//668 333//668 291//668
f 379//669 294//669 292//669
f 292//670 335//670 379//670
f 293//671 316//671 315//671
f 315//672 377//672 293//672
f 318//673 317//673 294//673
f 294//674 379//674 318//674
f 315//675 330//675 377//675
f 379//676 332//676 318//676
f 293//677 319//677 316//677
f 317//678 320//678 294//678
f 365//679 382//679 383//679
f 383//680 366//680 365//680
f 384//681 385//681 368//681
f 368//682 367//682 384//682
f 338//683 366//683 383//683
f 383//684 322//684 338//684
f 384//685 367//685 339//685
f 339//686 326//686 384//686
f 380//687 376//687 383//687
f 383//688 382//688 380//688
f 384//689 378//689 381//689
f 381//690 385//690 384//690
f 327//691 323//691 383//691
f 383//692 376//692 327//692
f 384//693 325//693 329//693
f 329//694 378//694 384//694
f 322//695 383//695 323//695
f 325//696 384//696 326//696
f 386//697 387//697 388//697
f 388//698 389//698 386//698
f 390//699 391//699 392//699
f 392//700 393//700 390//700
f 386//701 389//701 394//701
f 394//702 395//702 386//702
f 396//703 393//703 392//703
f 392//704 397//704 396//704
f 395//705 394//705 398//705
f 398//706 399//706 395//706
f 400//707 396//707 397//707
f 397//708 401//708 400//708
f 399//709 398//709 402//709
f 402//710 403//710 399//710
f 404//711 400//711 401//711
f 401//712 405//712 404//712
f 403//713 402//713 406//713
f 406//714 407//714 403//714
f 408//715 404//715 405//715
f 405//716 409//716 408//716
f 407//717 406//717 410//717
f 410//718 411//718 407//718
f 412//719 408//719 409//719
f 409//720 413//720 412//720
f 406//721 414//721 415//721
f 415//722 410//722 406//722
f 416//723 417//723 408//723
f 408//724 412//724 416//724
f 402//725 418//725 414//725
f 414//726 406//726 402//726
f 417//727 419//727 404//727
f 404//728 408//728 417//728
f 398//729 420//729 418//729
f 418//730 402//730 398//730
f 419//731 421//731 400//731
f 400//732 404//732 419//732
f 394//733 422//733 420//733
f 420//734 398//734 394//734
f 421//735 423//735 396//735
f 396//736 400//736 421//736
f 389//737 424//737 422//737
f 422//738 394//738 389//738
f 423//739 425//739 393//739
f 393//740 396//740 423//740
f 389//741 388//741 426//741
f 426//742 424//742 389//742
f 427//743 390//743 393//743
f 393//744 425//744 427//744
f 333//745 380//745 428//745
f 428//746 429//746 333//746
f 430//747 381//747 335//747
f 335//748 431//748 430//748
f 380//749 411//749 410//749
f 410//750 428//750 380//750
f 412//751 413//751 381//751
f 381//752 430//752 412//752
f 334//753 333//753 429//753
f 429//754 372//754 334//754
f 431//755 335//755 336//755
f 336//756 373//756 431//756
f 374//757 432//757 388//757
f 388//758 387//758 374//758
f 390//759 433//759 375//759
f 375//760 391//760 390//760
f 410//761 415//761 434//761
f 434//762 428//762 410//762
f 435//763 416//763 412//763
f 412//764 430//764 435//764
f 436//765 437//765 428//765
f 428//766 434//766 436//766
f 430//767 438//767 439//767
f 439//768 435//768 430//768
f 440//769 437//769 436//769
f 436//250 441//250 440//250
f 439//770 438//770 442//770
f 442//250 443//250 439//250
f 444//771 445//771 437//771
f 437//772 440//772 444//772
f 438//773 446//773 447//773
f 447//774 442//774 438//774
f 432//775 445//775 444//775
f 444//776 448//776 432//776
f 447//777 446//777 433//777
f 433//778 449//778 447//778
f 388//779 432//779 448//779
f 448//780 426//780 388//780
f 449//781 433//781 390//781
f 390//782 427//782 449//782
f 372//783 445//783 432//783
f 432//784 374//784 372//784
f 433//785 446//785 373//785
f 373//786 375//786 433//786
f 372//787 429//787 437//787
f 437//788 445//788 372//788
f 438//789 431//789 373//789
f 373//790 446//790 438//790
f 429//791 428//791 437//791
f 438//792 430//792 431//792
f 426//793 448//793 450//793
f 450//794 451//794 426//794
f 452//795 449//795 427//795
f 427//796 453//796 452//796
f 448//797 444//797 454//797
f 454//798 450//798 448//798
f 455//799 447//799 449//799
f 449//800 452//800 455//800
f 444//801 440//801 456//801
f 456//801 454//801 444//801
f 457//802 442//802 447//802
f 447//802 455//802 457//802
f 440//803 441//803 458//803
f 458//804 456//804 440//804
f 459//805 443//805 442//805
f 442//806 457//806 459//806
f 441//807 436//807 460//807
f 460//808 458//808 441//808
f 461//809 439//809 443//809
f 443//810 459//810 461//810
f 436//811 434//811 462//811
f 462//812 460//812 436//812
f 463//813 435//813 439//813
f 439//814 461//814 463//814
f 434//815 415//815 464//815
f 464//816 462//816 434//816
f 465//817 416//817 435//817
f 435//816 463//816 465//816
f 424//818 426//818 451//818
f 451//819 466//819 424//819
f 453//820 427//820 425//820
f 425//821 467//821 453//821
f 422//822 424//822 466//822
f 466//823 468//823 422//823
f 467//824 425//824 423//824
f 423//825 469//825 467//825
f 420//826 422//826 468//826
f 468//827 470//827 420//827
f 469//828 423//828 421//828
f 421//829 471//829 469//829
f 418//830 420//830 470//830
f 470//831 472//831 418//831
f 471//832 421//832 419//832
f 419//833 473//833 471//833
f 414//834 418//834 472//834
f 472//835 474//835 414//835
f 473//836 419//836 417//836
f 417//837 475//837 473//837
f 415//838 414//838 474//838
f 474//839 464//839 415//839
f 475//840 417//840 416//840
f 416//841 465//841 475//841
f 458//842 460//842 476//842
f 476//843 477//843 458//843
f 478//844 461//844 459//844
f 459//845 479//845 478//845
f 477//846 476//846 480//846
f 480//847 481//847 477//847
f 482//848 478//848 479//848
f 479//849 483//849 482//849
f 481//850 480//850 484//850
f 484//851 485//851 481//851
f 486//852 482//852 483//852
f 483//853 487//853 486//853
f 485//854 484//854 488//854
f 488//855 489//855 485//855
f 490//856 486//856 487//856
f 487//857 491//857 490//857
f 466//858 451//858 485//858
f 485//859 489//859 466//859
f 487//860 453//860 467//860
f 467//861 491//861 487//861
f 450//862 481//862 485//862
f 485//863 451//863 450//863
f 487//864 483//864 452//864
f 452//865 453//865 487//865
f 450//866 454//866 477//866
f 477//867 481//867 450//867
f 479//868 455//868 452//868
f 452//869 483//869 479//869
f 458//870 477//870 454//870
f 454//250 456//250 458//250
f 455//871 479//871 459//871
f 459//250 457//250 455//250
f 462//872 464//872 476//872
f 476//873 460//873 462//873
f 478//874 465//874 463//874
f 463//875 461//875 478//875
f 474//876 480//876 476//876
f 476//877 464//877 474//877
f 478//878 482//878 475//878
f 475//879 465//879 478//879
f 472//880 484//880 480//880
f 480//881 474//881 472//881
f 482//882 486//882 473//882
f 473//883 475//883 482//883
f 470//884 488//884 484//884
f 484//885 472//885 470//885
f 486//886 490//886 471//886
f 471//887 473//887 486//887
f 468//888 489//888 488//888
f 488//889 470//889 468//889
f 490//890 491//890 469//890
f 469//891 471//891 490//891
f 466//892 489//892 468//892
f 469//893 491//893 467//893
f 407//894 411//894 492//894
f 492//895 493//895 407//895
f 494//896 413//896 409//896
f 409//897 495//897 494//897
f 403//898 407//898 493//898
f 493//899 496//899 403//899
f 495//900 409//900 405//900
f 405//901 497//901 495//901
f 399//902 403//902 496//902
f 496//903 498//903 399//903
f 497//904 405//904 401//904
f 401//905 499//905 497//905
f 395//906 399//906 498//906
f 498//907 500//907 395//907
f 499//908 401//908 397//908
f 397//909 501//909 499//909
f 386//910 395//910 500//910
f 500//911 502//911 386//911
f 501//912 397//912 392//912
f 392//913 503//913 501//913
f 387//914 386//914 502//914
f 502//915 504//915 387//915
f 503//916 392//916 391//916
f 391//917 505//917 503//917
f 502//918 493//918 492//918
f 492//919 504//919 502//919
f 494//920 495//920 503//920
f 503//921 505//921 494//921
f 502//922 500//922 496//922
f 496//923 493//923 502//923
f 497//924 501//924 503//924
f 503//925 495//925 497//925
f 500//926 498//926 496//926
f 497//927 499//927 501//927
f 365//928 374//928 387//928
f 387//929 504//929 365//929
f 391//930 375//930 368//930
f 368//931 505//931 391//931
f 365//932 504//932 492//932
f 492//933 382//933 365//933
f 494//934 505//934 368//934
f 368//935 385//935 494//935
f 380//936 382//936 492//936
f 492//937 411//937 380//937
f 494//938 385//938 381//938
f 381//939 413//939 494//939
